<?xml version="1.0" standalone="no"?>
<!DOCTYPE svg PUBLIC "-//W3C//DTD SVG 20010904//EN"
 "http://www.w3.org/TR/2001/REC-SVG-20010904/DTD/svg10.dtd">
<svg version="1.0" xmlns="http://www.w3.org/2000/svg"
 width="260.000000pt" height="260.000000pt" viewBox="0 0 260.000000 260.000000"
 preserveAspectRatio="xMidYMid meet">
<metadata>
Created by potrace 1.14, written by Peter Selinger 2001-2017
</metadata>
<g transform="translate(0.000000,260.000000) scale(0.100000,-0.100000)"
fill="#000000" stroke="none">
<path d="M1282 2480 c-25 -11 -52 -64 -56 -115 -2 -17 -6 -37 -9 -42 -4 -6 -8
-24 -9 -42 -1 -17 -5 -31 -8 -31 -4 0 -6 -10 -5 -22 4 -48 -18 -72 -62 -71 -7
1 -13 -3 -13 -8 0 -5 -3 -8 -8 -6 -11 3 -122 -46 -122 -55 0 -5 -6 -8 -14 -8
-7 0 -25 -12 -40 -26 -14 -15 -26 -24 -26 -20 0 3 -21 -17 -47 -45 -27 -28
-47 -55 -45 -60 1 -5 -2 -9 -7 -9 -5 0 -13 -9 -16 -20 -4 -11 -11 -18 -16 -14
-6 3 -9 0 -8 -7 1 -8 -4 -27 -11 -44 -18 -42 -18 -145 0 -181 23 -45 57 -73
104 -86 l42 -11 -96 -48 c-52 -26 -105 -57 -117 -68 -12 -12 -27 -21 -33 -21
-5 0 -10 -4 -10 -10 0 -5 -7 -10 -16 -10 -8 0 -13 -4 -10 -8 3 -5 -7 -18 -22
-29 l-27 -20 -1 96 c-1 53 -4 213 -6 356 -2 143 -3 269 0 281 5 27 41 44 91
44 27 0 38 4 38 16 0 13 -27 15 -219 12 -200 -3 -218 -4 -218 -20 0 -14 9 -18
43 -19 72 -1 101 -7 114 -25 9 -13 13 -67 14 -188 0 -94 2 -346 5 -561 4 -331
2 -401 -12 -465 -26 -123 -69 -186 -135 -196 -30 -5 -41 0 -78 30 -45 38 -81
52 -105 43 -27 -10 -47 -53 -40 -82 10 -40 61 -58 145 -52 126 9 213 81 288
237 l36 75 50 -17 c84 -29 243 -19 286 18 9 8 18 11 22 8 5 -6 75 41 88 59 3
5 9 2 12 -7 3 -8 2 -16 -3 -18 -5 -2 -11 -14 -14 -28 -2 -14 -5 -27 -6 -30 -2
-3 -2 -8 -1 -12 0 -5 -4 -8 -9 -8 -6 0 -10 -10 -10 -22 0 -13 -7 -36 -15 -52
-9 -16 -13 -31 -11 -34 3 -2 0 -14 -6 -26 -7 -11 -13 -25 -14 -31 0 -5 -2 -12
-3 -15 -4 -8 -11 -43 -13 -63 -1 -9 -6 -17 -10 -17 -4 0 -5 -9 -3 -20 2 -11 0
-20 -4 -20 -5 0 -7 -11 -6 -25 2 -14 0 -25 -3 -25 -4 0 -8 -38 -9 -85 -1 -47
3 -85 8 -85 5 0 8 -3 7 -7 -4 -15 13 -53 23 -53 6 0 7 -5 4 -10 -4 -6 -3 -9 2
-8 4 1 18 -3 31 -10 12 -7 31 -10 41 -7 25 8 34 44 15 63 -20 19 -48 62 -50
76 -1 6 -6 30 -12 53 -7 28 -6 45 1 52 8 8 8 11 0 11 -5 0 -9 10 -8 22 1 13 3
23 5 23 1 0 3 15 5 34 2 19 7 46 11 60 4 14 8 28 8 31 3 19 42 126 47 130 4 3
9 16 10 30 2 14 7 27 10 30 4 3 13 20 21 39 l13 34 39 -59 c95 -144 235 -246
406 -294 97 -28 300 -35 413 -14 224 40 435 192 525 376 49 101 63 161 67 298
7 233 -54 384 -222 546 -119 115 -307 181 -516 182 -171 1 -279 -24 -430 -100
-85 -44 -183 -132 -232 -210 -17 -27 -36 -49 -42 -49 -47 -5 -60 -4 -72 5 -11
8 -13 8 -8 -1 14 -23 -68 18 -87 44 -19 25 -30 123 -14 123 4 0 7 3 6 8 -4 15
14 72 23 72 5 0 8 3 7 8 -3 16 17 46 58 88 24 24 44 42 44 39 0 -3 10 3 22 15
12 11 28 20 35 20 7 0 13 5 13 11 0 5 3 8 8 6 4 -3 18 0 32 6 38 15 51 17 110
18 66 0 120 -10 120 -22 0 -5 5 -9 11 -9 6 0 30 -14 53 -30 57 -41 84 -30 76
30 -2 21 -42 59 -65 65 -11 2 -35 8 -53 14 -18 5 -35 10 -37 10 -3 1 -6 1 -7
2 -2 1 -16 2 -33 4 -46 4 -46 4 -36 23 5 9 13 28 19 42 5 14 18 43 28 65 10
22 18 42 19 45 0 3 4 11 8 17 9 14 17 45 21 78 2 22 -21 55 -38 54 -6 0 -21
-4 -34 -9z m631 -549 c93 -33 160 -76 224 -144 114 -122 157 -258 157 -497 0
-128 -4 -171 -22 -244 -56 -224 -169 -347 -369 -402 -80 -22 -242 -26 -307 -7
-153 45 -282 162 -352 318 -82 186 -94 422 -30 601 79 223 189 334 378 384 96
25 238 21 321 -9z m-918 -451 c-20 -33 -27 -250 -10 -332 12 -55 11 -62 -6
-79 -16 -16 -96 -71 -109 -75 -3 0 -19 -7 -37 -13 -18 -7 -35 -12 -39 -11 -4
1 -10 -3 -13 -8 -8 -14 -113 -25 -151 -17 -50 11 -68 38 -65 99 1 29 10 67 19
84 9 18 16 35 15 38 0 4 6 11 15 16 9 5 14 13 11 19 -4 5 -2 9 4 9 5 0 12 8
16 19 6 19 109 127 141 148 10 7 35 23 54 35 43 28 92 52 103 50 4 -1 7 2 7 7
0 8 17 16 43 20 5 0 5 -3 2 -9z"/>
</g>
</svg>
